<mxfile host="65bd71144e">
    <diagram id="sU7FBKp1SqCHDG9V20aa" name="Page-1">
        <mxGraphModel dx="1696" dy="1311" grid="1" gridSize="10" guides="1" tooltips="1" connect="1" arrows="1" fold="1" page="1" pageScale="1" pageWidth="1100" pageHeight="850" math="0" shadow="0">
            <root>
                <mxCell id="0"/>
                <mxCell id="1" parent="0"/>
                <mxCell id="5" value="server&lt;br&gt;" style="shape=cube;whiteSpace=wrap;html=1;boundedLbl=1;backgroundOutline=1;darkOpacity=0.05;darkOpacity2=0.1;spacingTop=1;" parent="1" vertex="1">
                    <mxGeometry x="460" y="460" width="260" height="620" as="geometry"/>
                </mxCell>
                <mxCell id="6" value="&lt;font style=&quot;font-size: 11px;&quot;&gt;&lt;u&gt;General manager&lt;br&gt;&lt;br&gt;&lt;/u&gt;&lt;/font&gt;" style="shape=cube;whiteSpace=wrap;html=1;boundedLbl=1;backgroundOutline=1;darkOpacity=0.05;darkOpacity2=0.1;" parent="1" vertex="1">
                    <mxGeometry x="540" y="500" width="120" height="100" as="geometry"/>
                </mxCell>
                <mxCell id="9" value="" style="shape=cube;whiteSpace=wrap;html=1;boundedLbl=1;backgroundOutline=1;darkOpacity=0.05;darkOpacity2=0.1;" parent="1" vertex="1">
                    <mxGeometry x="550" y="680" width="120" height="80" as="geometry"/>
                </mxCell>
                <mxCell id="10" value="" style="shape=cube;whiteSpace=wrap;html=1;boundedLbl=1;backgroundOutline=1;darkOpacity=0.05;darkOpacity2=0.1;" parent="1" vertex="1">
                    <mxGeometry x="550" y="900" width="120" height="80" as="geometry"/>
                </mxCell>
                <mxCell id="12" value="sequenceDiagram&#10;    participant Alice&#10;    participant Bob&#10;    Alice-&gt;&gt;John: Hello John, how are you?&#10;    loop Healthcheck&#10;        John-&gt;&gt;John: Fight against hypochondria&#10;    end&#10;    Note right of John: Rational thoughts &lt;br/&gt;prevail!&#10;    John--&gt;&gt;Alice: Great!&#10;    John-&gt;&gt;Bob: How about you?&#10;    Bob--&gt;&gt;John: Jolly good!" style="shadow=0;dashed=0;align=left;strokeWidth=1;shape=mxgraph.mermaid.abstract.mermaid;labelBackgroundColor=#ffffff;noLabel=1;theme=default;" vertex="1" parent="1">
                    <mxGeometry x="-390" y="-370" width="400" height="300" as="geometry"/>
                </mxCell>
                <mxCell id="13" value="stateDiagram&#10;    [*] --&gt; Still&#10;    Still --&gt; [*]&#10;&#10;    Still --&gt; Moving&#10;    Moving --&gt; Still&#10;    Moving --&gt; Crash&#10;    Crash --&gt; [*]" style="shadow=0;dashed=0;align=left;strokeWidth=1;shape=mxgraph.mermaid.abstract.mermaid;labelBackgroundColor=#ffffff;noLabel=1;theme=default;" vertex="1" parent="1">
                    <mxGeometry x="-240" y="-340" width="100" height="240" as="geometry"/>
                </mxCell>
                <mxCell id="14" value="graph TD;&#10;    A--&gt;B;&#10;    A--&gt;C;&#10;    B--&gt;D;&#10;    C--&gt;D;" style="shadow=0;dashed=0;align=left;strokeWidth=1;shape=mxgraph.mermaid.abstract.mermaid;labelBackgroundColor=#ffffff;noLabel=1;theme=default;" vertex="1" parent="1">
                    <mxGeometry x="-240" y="-320" width="100" height="200" as="geometry"/>
                </mxCell>
                <mxCell id="15" value="erDiagram&#10;    CUSTOMER ||--o{ ORDER : places&#10;    ORDER ||--|{ LINE-ITEM : contains&#10;    CUSTOMER }|..|{ DELIVERY-ADDRESS : uses" style="shadow=0;dashed=0;align=left;strokeWidth=1;shape=mxgraph.mermaid.abstract.mermaid;labelBackgroundColor=#ffffff;noLabel=1;theme=default;" vertex="1" parent="1">
                    <mxGeometry x="-390" y="-470" width="400" height="500" as="geometry"/>
                </mxCell>
            </root>
        </mxGraphModel>
    </diagram>
</mxfile>